<svg xmlns="http://www.w3.org/2000/svg" width="20" height="20" viewBox="0 0 20 20" fill="none"><path d="M1.43512 10.1983L2.73969 16.6252C3.03243 18.0674 4.30978 19.115 5.7777 19.115H13.451C14.918 19.115 16.1962 18.0674 16.489 16.6252L17.7935 10.1983L18.638 9.26408C18.9686 8.89834 19.141 8.43166 19.1121 7.98318C19.0478 6.9836 18.2157 6.20083 17.2179 6.20083H16.512L15.2586 2.25065C14.8529 0.973075 13.6836 0.115 12.3485 0.115H6.87963C5.54456 0.115 4.37444 0.973075 3.96955 2.25065L2.71611 6.20083H2.01022C1.07344 6.20083 0.285086 6.87604 0.135835 7.80526C0.053373 8.32077 0.220771 8.8553 0.596804 9.27069L1.43464 10.1983L1.43512 10.1983ZM16.0195 16.5292C15.7721 17.7489 14.6919 18.6343 13.4508 18.6343H5.77755C4.53731 18.6343 3.45709 17.7489 3.20883 16.5292L2.37099 12.4019L16.8532 12.4201L16.0187 16.5292L16.0195 16.5292ZM16.9505 11.9393L2.27389 11.9211L1.94486 10.2985H17.2846L16.9515 11.9393L16.9505 11.9393ZM4.4261 2.39707C4.7675 1.31973 5.75376 0.596528 6.8802 0.596528H12.3491C13.4747 0.596528 14.461 1.32056 14.8032 2.39707L16.0105 6.20088H14.7974L13.7015 2.74955C13.5118 2.15626 12.9692 1.75743 12.3499 1.75743H6.88104C6.26175 1.75743 5.71914 2.15626 5.52949 2.74955L4.43355 6.20003H3.22052L4.42779 2.39622L4.4261 2.39707ZM14.2936 6.20088H4.93487L5.98463 2.89593C6.10997 2.50288 6.46952 2.23809 6.88018 2.23809H12.3491C12.7589 2.23809 13.1184 2.50205 13.2446 2.8951L14.2944 6.20005L14.2936 6.20088ZM0.609745 7.88226C0.721069 7.18636 1.31068 6.68162 2.01079 6.68162H17.2177C18.0506 6.68162 18.5916 7.3593 18.6336 8.01383C18.6542 8.33323 18.5264 8.67084 18.2823 8.94141L17.4899 9.8185L1.73867 9.81768L0.95279 8.94801C0.679008 8.64599 0.551205 8.24716 0.609745 7.88142V7.88226ZM9.85383 13.7961L9.86372 17.1093C9.86372 17.2417 9.75734 17.3501 9.62458 17.3501H9.62376C9.49182 17.3501 9.38462 17.2425 9.38462 17.1101L9.37472 13.7969C9.37472 13.6645 9.4811 13.5561 9.61386 13.5561H9.61469C9.74663 13.5561 9.85383 13.6637 9.85383 13.7961ZM7.23486 16.9388C7.26537 17.0679 7.1862 17.1978 7.05756 17.2284C7.0386 17.2325 7.01963 17.235 7.00149 17.235C6.89346 17.235 6.79533 17.1614 6.76893 17.0505L6.07955 14.1692C6.04904 14.0401 6.1282 13.9102 6.25684 13.8796C6.38466 13.8481 6.51496 13.9284 6.54547 14.0575L7.23486 16.9388ZM13.1302 14.1693L12.4408 17.0506C12.4144 17.1607 12.3163 17.2351 12.2082 17.2351C12.1901 17.2351 12.1711 17.2335 12.1522 17.2285C12.0235 17.1979 11.9444 17.068 11.9749 16.9389L12.6643 14.0576C12.6948 13.9285 12.8234 13.8483 12.9529 13.8797C13.0815 13.9103 13.1607 14.0402 13.1302 14.1693Z" fill="currentColor" stroke="currentColor" stroke-width="0.23"/></svg>
