<svg xmlns="http://www.w3.org/2000/svg" width="17.15" height="17.15" viewBox="0 0 19 19" fill="none"><g transform="translate(9.5 9.5) scale(0.9) translate(-9.5 -9.5)"><path d="M18.8342 18.0339L14.2127 13.4123C15.4512 11.989 16.2035 10.1323 16.2035 8.10178C16.2035 3.63438 12.5692 0 8.10177 0C3.63437 0 0 3.63438 0 8.10178C0 12.5692 3.63437 16.2036 8.10177 16.2036C10.1323 16.2036 11.9889 15.4512 13.4123 14.2127L18.0339 18.8343C18.1444 18.9448 18.2893 19 18.4342 19C18.5791 19 18.724 18.9448 18.8345 18.8343C19.0552 18.6133 19.0552 18.2549 18.8342 18.0339ZM1.13182 8.10178C1.13182 4.25857 4.25856 1.13182 8.10177 1.13182C11.945 1.13182 15.0717 4.25857 15.0717 8.10178C15.0717 11.945 11.945 15.0717 8.10177 15.0717C4.25856 15.0717 1.13182 11.945 1.13182 8.10178Z" fill="currentColor"/></g></svg>
